<?xml version="1.0" encoding="utf-8"?>
<!-- Generator: Adobe Illustrator 16.0.0, SVG Export Plug-In . SVG Version: 6.00 Build 0)  -->
<!DOCTYPE svg PUBLIC "-//W3C//DTD SVG 1.1//EN" "http://www.w3.org/Graphics/SVG/1.1/DTD/svg11.dtd">
<svg version="1.1" id="Layer_1" xmlns="http://www.w3.org/2000/svg" xmlns:xlink="http://www.w3.org/1999/xlink" x="0px" y="0px"
	 width="20px" height="20px" viewBox="0 0 20 20" enable-background="new 0 0 20 20" xml:space="preserve">
<rect fill="none" width="20" height="20"/>
<path fill="#571C1F" d="M16.982,7.747c0,3.856-6.982,11.519-6.982,11.519S3.018,11.604,3.018,7.747c0-3.857,3.127-6.982,6.982-6.982
	C13.855,0.765,16.982,3.891,16.982,7.747"/>
<path fill="none" stroke="#FFFFFF" stroke-linecap="round" stroke-linejoin="round" stroke-miterlimit="10" d="M16.982,7.747
	c0,3.856-6.982,11.519-6.982,11.519S3.018,11.604,3.018,7.747c0-3.857,3.127-6.982,6.982-6.982
	C13.855,0.765,16.982,3.891,16.982,7.747z"/>
<rect y="0.016" fill="none" width="20" height="20"/>
<g>
	<path fill="#FFFFFF" d="M10,4.07c-1.98,0-3.586,1.605-3.586,3.587c0,1.983,1.606,3.587,3.586,3.587
		c1.983,0,3.587-1.604,3.587-3.587C13.587,5.675,11.983,4.07,10,4.07 M10,10.819c-1.747-0.004-3.158-1.417-3.161-3.163
		C6.842,5.914,8.253,4.498,10,4.498c1.744,0,3.158,1.416,3.16,3.159C13.158,9.402,11.744,10.815,10,10.819"/>
	<polygon fill="#FFFFFF" points="9.257,8.322 10.724,10.415 12.324,9.293 10.86,7.2 11.925,6.455 10.862,4.937 7.129,7.55
		8.191,9.068 	"/>
</g>
</svg>
